<svg width="446" height="119" viewBox="0 0 446 119" fill="none" xmlns="http://www.w3.org/2000/svg">
<path d="M17.1075 60.2487C17.0036 60.2103 16.9083 60.1516 16.827 60.0762C16.7458 60.0007 16.6803 59.9099 16.6342 59.8089C16.5881 59.7079 16.5624 59.5989 16.5586 59.4879C16.5547 59.377 16.5728 59.2663 16.6118 59.1624L17.9477 54.9941C18.1073 54.4973 18.4434 54.3289 19.0231 54.5815C21.0648 55.4867 23.277 55.9405 25.5094 55.912C32.3233 55.912 36.9863 51.0785 36.9863 44.6618C36.9863 38.4136 33.4071 34.4979 26.0051 32.578L20.5187 31.1633C19.4432 30.9107 18.8383 30.3212 19.4432 28.9991L28.7525 8.83136C28.8365 8.57874 28.7525 8.33453 28.5004 8.33453H7.88224C7.82721 8.3308 7.77203 8.33892 7.7204 8.35833C7.66876 8.37775 7.62187 8.40802 7.58287 8.4471C7.54388 8.48619 7.51367 8.53319 7.4943 8.58494C7.47493 8.63669 7.46683 8.692 7.47056 8.74715V59.9456C7.47798 60.0581 7.46133 60.1709 7.42174 60.2764C7.38214 60.3819 7.32051 60.4778 7.24096 60.5575C7.16141 60.6372 7.06578 60.699 6.96048 60.7387C6.85517 60.7784 6.74263 60.7951 6.63037 60.7876H2.13537C2.02311 60.7951 1.91056 60.7784 1.80526 60.7387C1.69995 60.699 1.60433 60.6372 1.52478 60.5575C1.44523 60.4778 1.3836 60.3819 1.344 60.2764C1.3044 60.1709 1.28775 60.0581 1.29518 59.9456V3.24838C1.28775 3.13587 1.3044 3.02307 1.344 2.91753C1.3836 2.81199 1.44523 2.71614 1.52478 2.63641C1.60433 2.55668 1.69995 2.49491 1.80526 2.45522C1.91056 2.41553 2.02311 2.39885 2.13537 2.4063H36.8183C37.022 2.40767 37.2217 2.4628 37.3974 2.56613C37.573 2.66947 37.7184 2.81737 37.819 2.99494C37.9195 3.1725 37.9715 3.37348 37.9699 3.57762C37.9683 3.78177 37.913 3.98189 37.8097 4.15782L27.341 25.9171C27.0889 26.414 27.2569 26.6666 27.7527 26.835C38.5659 29.917 43.3801 35.3316 43.3801 44.6618C43.3801 54.3289 35.8185 61.9918 25.5094 61.9918C22.621 61.9765 19.7646 61.3839 17.1075 60.2487V60.2487Z" fill="#2C2C2C"/>
<path d="M61.5859 3.24822V59.9454C61.5933 60.0579 61.5767 60.1707 61.5371 60.2762C61.4975 60.3818 61.4358 60.4776 61.3563 60.5574C61.2767 60.6371 61.1811 60.6989 61.0758 60.7385C60.9705 60.7782 60.8579 60.7949 60.7457 60.7875H56.2591C56.1465 60.7963 56.0333 60.7806 55.9274 60.7415C55.8214 60.7023 55.7252 60.6405 55.6454 60.5605C55.5655 60.4805 55.5039 60.384 55.4648 60.2778C55.4257 60.1717 55.4101 60.0582 55.4189 59.9454V3.24822C55.4101 3.13538 55.4257 3.02196 55.4648 2.91577C55.5039 2.80958 55.5655 2.71314 55.6454 2.63311C55.7252 2.55307 55.8214 2.49134 55.9274 2.45215C56.0333 2.41297 56.1465 2.39727 56.2591 2.40614H60.7457C60.8579 2.3987 60.9705 2.41538 61.0758 2.45506C61.1811 2.49475 61.2767 2.55652 61.3563 2.63625C61.4358 2.71598 61.4975 2.81183 61.5371 2.91737C61.5767 3.02291 61.5933 3.13571 61.5859 3.24822V3.24822Z" fill="#2C2C2C"/>
<path d="M73.9702 31.5843C73.9702 14.0017 87.1863 1 103.73 1C120.273 1 133.497 14.0017 133.497 31.5843C133.497 49.1669 120.248 62.1602 103.73 62.1602C87.2116 62.1602 73.9702 49.1669 73.9702 31.5843ZM127.011 31.5843C127.011 17.4963 117.122 7.07981 103.73 7.07981C90.337 7.07981 80.4565 17.4963 80.4565 31.5843C80.4565 45.6723 90.3454 56.0804 103.73 56.0804C117.114 56.0804 127.011 45.6302 127.011 31.5843Z" fill="#2C2C2C"/>
<path d="M174.021 36.7462V32.4937C174.012 32.3809 174.027 32.2675 174.067 32.1613C174.106 32.0551 174.167 31.9587 174.247 31.8786C174.327 31.7986 174.423 31.7369 174.529 31.6977C174.635 31.6585 174.748 31.6428 174.861 31.6517H199.142C199.255 31.6428 199.368 31.6585 199.474 31.6977C199.58 31.7369 199.676 31.7986 199.756 31.8786C199.836 31.9587 199.897 32.0551 199.936 32.1613C199.976 32.2675 199.991 32.3809 199.982 32.4937C199.142 50.8258 187.674 62.1602 171.13 62.1602C154.747 62.1602 142.035 49.6637 142.035 31.5843C142.035 13.5049 154.696 1 171.324 1C181.633 1 190.362 5.41249 195.513 12.8312C195.59 12.9141 195.648 13.0134 195.682 13.1217C195.716 13.23 195.725 13.3445 195.709 13.4569C195.693 13.5692 195.652 13.6765 195.588 13.7708C195.525 13.8651 195.442 13.944 195.345 14.0017L191.69 16.5279C191.606 16.604 191.507 16.6607 191.399 16.6938C191.292 16.727 191.178 16.7358 191.066 16.7197C190.955 16.7036 190.848 16.663 190.754 16.6007C190.66 16.5384 190.58 16.4561 190.522 16.3595C186.455 10.3555 179.465 7.09665 171.324 7.09665C157.931 7.09665 148.37 16.9321 148.37 31.6011C148.37 46.2702 157.931 56.0972 171.055 56.0972C182.364 56.0972 190.673 49.428 192.757 38.0178C192.832 37.7652 192.673 37.5967 192.421 37.5967H174.777C174.671 37.5925 174.567 37.5669 174.471 37.5215C174.375 37.4761 174.289 37.4118 174.218 37.3324C174.148 37.253 174.094 37.1602 174.06 37.0595C174.026 36.9588 174.013 36.8523 174.021 36.7462Z" fill="#2C2C2C"/>
<path d="M216.71 60.7876H212.215C212.103 60.7951 211.991 60.7784 211.885 60.7387C211.78 60.699 211.684 60.6372 211.605 60.5575C211.525 60.4778 211.464 60.3819 211.424 60.2764C211.384 60.1709 211.368 60.0581 211.375 59.9456V3.24838C211.368 3.13587 211.384 3.02307 211.424 2.91753C211.464 2.81199 211.525 2.71614 211.605 2.63641C211.684 2.55668 211.78 2.49491 211.885 2.45522C211.991 2.41553 212.103 2.39885 212.215 2.4063H228.431C240.236 2.4063 249.301 9.6566 249.301 22.153C249.301 32.1569 243.311 38.4052 235.018 40.8219C234.43 40.9904 234.27 41.2346 234.682 41.7398L249.133 59.7435C249.545 60.3245 249.301 60.7455 248.629 60.7455H242.815C242.54 60.7871 242.26 60.746 242.009 60.6276C241.757 60.5092 241.547 60.3187 241.404 60.0803L227.599 42.3966C227.468 42.1674 227.271 41.9821 227.035 41.8638C226.799 41.7455 226.534 41.6994 226.272 41.7314H217.954C217.899 41.7277 217.844 41.7358 217.792 41.7552C217.74 41.7746 217.694 41.8049 217.655 41.844C217.616 41.883 217.585 41.93 217.566 41.9818C217.547 42.0335 217.539 42.0889 217.542 42.144V59.9456C217.55 60.0573 217.533 60.1694 217.494 60.2743C217.455 60.3792 217.394 60.4746 217.315 60.5542C217.237 60.6338 217.142 60.6957 217.038 60.736C216.934 60.7762 216.822 60.7938 216.71 60.7876V60.7876ZM217.551 8.78926V35.4158C217.547 35.4709 217.555 35.5263 217.574 35.578C217.594 35.6298 217.624 35.6768 217.663 35.7158C217.702 35.7549 217.749 35.7852 217.8 35.8046C217.852 35.824 217.907 35.8321 217.962 35.8284H227.86C235.993 35.8284 242.916 31.8285 242.916 22.052C242.916 12.2755 235.993 8.33453 227.851 8.33453H217.954C217.899 8.3308 217.844 8.33892 217.792 8.35833C217.74 8.37775 217.694 8.40802 217.655 8.4471C217.616 8.48619 217.585 8.53319 217.566 8.58494C217.547 8.63669 217.539 8.692 217.542 8.74715L217.551 8.78926Z" fill="#2C2C2C"/>
<path d="M284.875 3.3328L302.006 59.8279C302.166 60.4089 301.922 60.7457 301.334 60.7457H296.688C296.462 60.7578 296.238 60.7005 296.046 60.5817C295.854 60.4628 295.703 60.2879 295.612 60.0805L291.949 47.5756C291.906 47.3704 291.789 47.1885 291.619 47.0654C291.45 46.9424 291.241 46.8871 291.033 46.9104H267.088C266.88 46.8871 266.671 46.9424 266.502 47.0654C266.332 47.1885 266.215 47.3704 266.172 47.5756L262.509 60.0805C262.422 60.3007 262.268 60.4878 262.069 60.6149C261.87 60.742 261.636 60.8025 261.4 60.7878H256.737C256.157 60.7878 255.897 60.451 256.073 59.87L273.238 3.3328C273.248 3.2014 273.283 3.07322 273.342 2.9557C273.402 2.83818 273.484 2.73368 273.584 2.64827C273.684 2.56285 273.8 2.49824 273.925 2.45818C274.051 2.41812 274.183 2.40342 274.313 2.41493H283.799C283.93 2.40342 284.062 2.41812 284.187 2.45818C284.312 2.49824 284.428 2.56285 284.529 2.64827C284.629 2.73368 284.711 2.83818 284.77 2.9557C284.83 3.07322 284.865 3.2014 284.875 3.3328V3.3328ZM268.583 40.999H289.529C289.781 40.999 289.949 40.8306 289.865 40.4937L280.388 8.74737C280.304 8.50316 280.22 8.33475 279.884 8.33475H278.204C277.867 8.33475 277.783 8.50316 277.699 8.74737L268.247 40.4937C268.163 40.8306 268.331 40.999 268.583 40.999Z" fill="#2C2C2C"/>
<path d="M348.972 22.835C348.972 35.3314 340.822 43.247 327.026 43.247H319.204C319.15 43.2446 319.095 43.2536 319.044 43.2735C318.993 43.2934 318.947 43.3237 318.908 43.3625C318.869 43.4013 318.839 43.4478 318.819 43.4989C318.799 43.55 318.79 43.6048 318.793 43.6596V59.9454C318.8 60.0579 318.783 60.1707 318.744 60.2762C318.704 60.3818 318.643 60.4776 318.563 60.5574C318.483 60.6371 318.388 60.6989 318.283 60.7385C318.177 60.7782 318.065 60.7949 317.952 60.7875H313.491C313.378 60.7963 313.265 60.7806 313.159 60.7415C313.053 60.7023 312.957 60.6405 312.877 60.5605C312.797 60.4805 312.736 60.384 312.697 60.2778C312.658 60.1717 312.642 60.0582 312.651 59.9454V3.24822C312.642 3.13538 312.658 3.02196 312.697 2.91577C312.736 2.80958 312.797 2.71314 312.877 2.63311C312.957 2.55307 313.053 2.49134 313.159 2.45215C313.265 2.41297 313.378 2.39727 313.491 2.40614H327.043C340.822 2.41456 348.972 10.3301 348.972 22.835ZM319.204 37.3272H326.438C336.663 37.3272 342.486 32.4936 342.486 22.835C342.486 13.1763 336.663 8.33438 326.438 8.33438H319.204C319.15 8.33199 319.095 8.34103 319.044 8.36092C318.993 8.38081 318.947 8.41112 318.908 8.44992C318.869 8.48872 318.839 8.53517 318.819 8.58631C318.799 8.63745 318.79 8.69217 318.793 8.74699V36.9145C318.789 36.9697 318.797 37.025 318.816 37.0767C318.836 37.1285 318.866 37.1755 318.905 37.2146C318.944 37.2537 318.991 37.2839 319.042 37.3034C319.094 37.3228 319.149 37.3309 319.204 37.3272Z" fill="#2C2C2C"/>
<path d="M365.583 28.4937H391.351C391.407 28.4988 391.463 28.4916 391.516 28.4727C391.568 28.4539 391.616 28.4238 391.656 28.3846C391.696 28.3454 391.727 28.2979 391.747 28.2455C391.767 28.1931 391.775 28.137 391.771 28.0811V3.24822C391.762 3.13538 391.778 3.02196 391.817 2.91577C391.856 2.80958 391.918 2.71314 391.998 2.63311C392.078 2.55307 392.174 2.49134 392.28 2.45215C392.386 2.41297 392.499 2.39727 392.611 2.40614H397.098C397.21 2.3987 397.323 2.41538 397.428 2.45506C397.533 2.49475 397.629 2.55652 397.709 2.63625C397.788 2.71598 397.85 2.81183 397.889 2.91737C397.929 3.02291 397.946 3.13571 397.938 3.24822V59.9454C397.946 60.0579 397.929 60.1707 397.889 60.2762C397.85 60.3818 397.788 60.4776 397.709 60.5574C397.629 60.6371 397.533 60.6989 397.428 60.7385C397.323 60.7782 397.21 60.7949 397.098 60.7875H392.611C392.499 60.7963 392.386 60.7806 392.28 60.7415C392.174 60.7023 392.078 60.6405 391.998 60.5605C391.918 60.4805 391.856 60.384 391.817 60.2778C391.778 60.1717 391.762 60.0582 391.771 59.9454V34.8346C391.775 34.7783 391.767 34.7219 391.747 34.6692C391.727 34.6164 391.696 34.5685 391.656 34.5286C391.617 34.4888 391.569 34.4579 391.516 34.438C391.464 34.4182 391.407 34.4098 391.351 34.4136H365.583C365.527 34.4098 365.47 34.4182 365.418 34.438C365.365 34.4579 365.317 34.4888 365.277 34.5286C365.238 34.5685 365.207 34.6164 365.187 34.6692C365.167 34.7219 365.159 34.7783 365.163 34.8346V59.9454C365.171 60.0582 365.156 60.1717 365.117 60.2778C365.078 60.384 365.016 60.4805 364.936 60.5605C364.856 60.6405 364.76 60.7023 364.654 60.7415C364.548 60.7806 364.435 60.7963 364.322 60.7875H359.836C359.723 60.7963 359.61 60.7806 359.504 60.7415C359.398 60.7023 359.302 60.6405 359.222 60.5605C359.142 60.4805 359.081 60.384 359.042 60.2778C359.002 60.1717 358.987 60.0582 358.996 59.9454V3.24822C358.987 3.13538 359.002 3.02196 359.042 2.91577C359.081 2.80958 359.142 2.71314 359.222 2.63311C359.302 2.55307 359.398 2.49134 359.504 2.45215C359.61 2.41297 359.723 2.39727 359.836 2.40614H364.322C364.435 2.39727 364.548 2.41297 364.654 2.45215C364.76 2.49134 364.856 2.55307 364.936 2.63311C365.016 2.71314 365.078 2.80958 365.117 2.91577C365.156 3.02196 365.171 3.13538 365.163 3.24822V28.0811C365.159 28.137 365.167 28.1931 365.187 28.2455C365.207 28.2979 365.238 28.3454 365.278 28.3846C365.318 28.4238 365.366 28.4539 365.418 28.4727C365.471 28.4916 365.527 28.4988 365.583 28.4937V28.4937Z" fill="#2C2C2C"/>
<path d="M423.37 59.9457V41.42C423.395 40.7942 423.284 40.1705 423.043 39.5927L407.995 3.41695C407.93 3.30906 407.897 3.18488 407.9 3.05889C407.902 2.93289 407.941 2.81026 408.01 2.70527C408.08 2.60027 408.178 2.51724 408.292 2.46583C408.407 2.41442 408.534 2.39675 408.659 2.41488H413.565C413.772 2.39382 413.979 2.45014 414.146 2.57298C414.314 2.69581 414.43 2.87647 414.473 3.08012L426.118 31.4161C426.286 31.8287 426.613 31.8287 426.782 31.4161L438.418 3.08012C438.469 2.87927 438.588 2.70264 438.756 2.58105C438.923 2.45947 439.128 2.40066 439.334 2.41488H444.241C444.365 2.39675 444.492 2.41442 444.607 2.46583C444.722 2.51724 444.819 2.60027 444.889 2.70527C444.959 2.81026 444.997 2.93289 445 3.05889C445.002 3.18488 444.969 3.30906 444.904 3.41695L429.857 39.6263C429.613 40.2034 429.501 40.8277 429.529 41.4537V59.9457C429.544 60.0599 429.533 60.1761 429.496 60.2852C429.459 60.3943 429.398 60.4934 429.316 60.5749C429.235 60.6563 429.136 60.7179 429.027 60.7548C428.919 60.7918 428.803 60.803 428.689 60.7878H424.194C424.081 60.8002 423.967 60.7869 423.86 60.7487C423.754 60.7105 423.657 60.6485 423.578 60.5674C423.498 60.4863 423.439 60.3882 423.403 60.2805C423.367 60.1728 423.356 60.0583 423.37 59.9457Z" fill="#2C2C2C"/>
<path d="M1.00042 110.302V83.8018C0.997926 83.7496 1.00649 83.6974 1.02556 83.6487C1.04464 83.6 1.0738 83.5559 1.1111 83.5193C1.14841 83.4827 1.19301 83.4544 1.242 83.4364C1.29098 83.4183 1.34323 83.4108 1.3953 83.4145H4.0755C4.17411 83.4195 4.27041 83.4463 4.35754 83.4928C4.44467 83.5394 4.52049 83.6046 4.57961 83.6839L12.0489 96.1551C12.2001 96.433 12.2757 96.433 12.4354 96.1551L19.9046 83.6839C19.9633 83.6042 20.039 83.5387 20.1263 83.492C20.2135 83.4454 20.31 83.4189 20.4087 83.4145H23.0889C23.1406 83.4107 23.1926 83.4181 23.2412 83.4363C23.2897 83.4544 23.3339 83.4828 23.3705 83.5196C23.4072 83.5563 23.4356 83.6005 23.4536 83.6492C23.4717 83.6979 23.4792 83.75 23.4754 83.8018V110.302C23.479 110.354 23.4716 110.407 23.4536 110.456C23.4355 110.505 23.4073 110.55 23.3708 110.587C23.3343 110.624 23.2903 110.653 23.2417 110.673C23.1931 110.692 23.1411 110.7 23.0889 110.698H20.9885C20.9363 110.7 20.8842 110.692 20.8357 110.673C20.7871 110.653 20.7431 110.624 20.7066 110.587C20.6701 110.55 20.6419 110.505 20.6238 110.456C20.6058 110.407 20.5983 110.354 20.602 110.302V88.6353C20.602 88.3659 20.4423 88.3238 20.3247 88.5596L12.7042 101.064C12.663 101.14 12.6022 101.203 12.5283 101.247C12.4544 101.291 12.37 101.314 12.2841 101.314C12.1982 101.314 12.1139 101.291 12.04 101.247C11.966 101.203 11.9053 101.14 11.864 101.064L4.15112 88.5764C4.0335 88.3406 3.88226 88.3827 3.88226 88.6522V110.302C3.88588 110.354 3.87843 110.407 3.8604 110.456C3.84237 110.505 3.81418 110.55 3.77767 110.587C3.74116 110.624 3.69716 110.653 3.64857 110.673C3.59998 110.692 3.5479 110.7 3.49577 110.698H1.3953C1.34281 110.7 1.2904 110.692 1.24141 110.673C1.19241 110.654 1.14792 110.624 1.11077 110.587C1.07361 110.55 1.0446 110.505 1.0256 110.456C1.0066 110.407 0.998034 110.355 1.00042 110.302V110.302Z" fill="#2C2C2C"/>
<path d="M28.457 101.654C28.457 95.9276 32.2715 92.2224 37.2454 92.2224C42.2193 92.2224 45.9581 96.0034 45.9581 101.224C45.9641 101.522 45.9501 101.821 45.9161 102.117C45.912 102.163 45.8986 102.208 45.8767 102.249C45.8549 102.29 45.825 102.326 45.7889 102.355C45.7528 102.384 45.7113 102.406 45.6667 102.418C45.6222 102.431 45.5756 102.434 45.5296 102.428H31.801C31.5321 102.428 31.3725 102.546 31.4481 102.942C31.8766 106.31 34.1703 108.55 37.6319 108.55C38.5903 108.541 39.5368 108.336 40.4136 107.948C41.2904 107.56 42.0792 106.997 42.7318 106.294C43.0007 106.016 43.1939 105.94 43.3872 106.134L44.6726 107.54C44.7084 107.571 44.737 107.61 44.7566 107.654C44.7763 107.697 44.7864 107.745 44.7864 107.792C44.7864 107.84 44.7763 107.888 44.7566 107.931C44.737 107.975 44.7084 108.013 44.6726 108.045C43.771 109.013 42.681 109.784 41.47 110.313C40.259 110.842 38.9527 111.116 37.6319 111.119C32.2715 111.119 28.457 107.38 28.457 101.654ZM42.9503 99.7001C42.7744 98.3238 42.0971 97.0612 41.0487 96.155C40.0003 95.2488 38.6548 94.7629 37.2706 94.7908C35.8802 94.778 34.5329 95.2738 33.4811 96.1853C32.4294 97.0968 31.7454 98.3614 31.5573 99.7422C31.4733 100.054 31.5573 100.172 31.9018 100.172H42.5974C42.883 100.172 43.0007 100.054 42.9503 99.7001Z" fill="#2C2C2C"/>
<path d="M64.3504 82.4795H66.4089C66.4606 82.4757 66.5125 82.4831 66.5611 82.5013C66.6097 82.5194 66.6539 82.5478 66.6905 82.5846C66.7272 82.6213 66.7555 82.6655 66.7736 82.7143C66.7917 82.763 66.7991 82.815 66.7954 82.8668V110.302C66.799 110.354 66.7916 110.406 66.7735 110.455C66.7555 110.505 66.7273 110.549 66.6908 110.587C66.6543 110.624 66.6103 110.653 66.5617 110.672C66.5131 110.691 66.461 110.7 66.4089 110.698H64.5017C64.4495 110.7 64.3975 110.691 64.3489 110.672C64.3003 110.653 64.2563 110.624 64.2198 110.587C64.1833 110.549 64.1551 110.505 64.1371 110.455C64.119 110.406 64.1116 110.354 64.1152 110.302V108.938C64.1152 108.668 63.964 108.626 63.7707 108.862C63.0273 109.625 62.1283 110.219 61.1351 110.603C60.1419 110.986 59.0778 111.151 58.0154 111.085C52.9743 111.085 49.1431 107.304 49.1431 101.654C49.1431 96.0033 52.9911 92.2223 58.0154 92.2223C59.0378 92.1792 60.0586 92.3393 61.019 92.6934C61.9794 93.0474 62.8603 93.5885 63.6111 94.2854C63.8463 94.5212 63.964 94.4033 63.964 94.1675V82.8668C63.9602 82.815 63.9676 82.763 63.9857 82.7143C64.0038 82.6655 64.0322 82.6213 64.0688 82.5846C64.1055 82.5478 64.1496 82.5194 64.1982 82.5013C64.2468 82.4831 64.2987 82.4757 64.3504 82.4795V82.4795ZM63.8043 105.628C63.9118 105.438 63.9669 105.223 63.964 105.005V98.2684C63.9669 98.0502 63.9118 97.8351 63.8043 97.6453C63.2451 96.7302 62.4533 95.9805 61.5099 95.473C60.5665 94.9655 59.5055 94.7184 58.4355 94.757C54.5875 94.757 52.0249 97.5274 52.0249 101.62C52.0249 105.712 54.5455 108.474 58.4355 108.474C59.5016 108.518 60.5602 108.278 61.5034 107.778C62.4466 107.278 63.2405 106.536 63.8043 105.628Z" fill="#2C2C2C"/>
<path d="M100.512 92.9636C100.512 98.8077 96.7064 102.513 90.2454 102.513H86.5906C86.5649 102.512 86.5392 102.516 86.5152 102.525C86.4912 102.534 86.4695 102.549 86.4513 102.567C86.4331 102.585 86.4189 102.607 86.4096 102.631C86.4003 102.655 86.3961 102.681 86.3973 102.706V110.285C86.4009 110.337 86.3935 110.39 86.3755 110.439C86.3574 110.488 86.3292 110.533 86.2927 110.57C86.2562 110.607 86.2122 110.637 86.1636 110.656C86.115 110.675 86.063 110.683 86.0108 110.681H83.9104C83.8582 110.683 83.8062 110.675 83.7576 110.656C83.709 110.637 83.665 110.607 83.6285 110.57C83.592 110.533 83.5638 110.488 83.5457 110.439C83.5277 110.39 83.5203 110.337 83.5239 110.285V83.8018C83.5201 83.75 83.5276 83.6979 83.5457 83.6492C83.5638 83.6005 83.5921 83.5563 83.6288 83.5196C83.6654 83.4828 83.7096 83.4544 83.7581 83.4363C83.8067 83.4181 83.8587 83.4107 83.9104 83.4145H90.2454C96.7232 83.4145 100.512 87.1196 100.512 92.9636ZM86.5906 99.7424H89.9513C94.732 99.7424 97.4542 97.4856 97.4542 92.9636C97.4542 88.4417 94.732 86.227 89.9513 86.227H86.5906C86.5649 86.2258 86.5392 86.23 86.5152 86.2393C86.4912 86.2486 86.4695 86.2628 86.4513 86.2811C86.4331 86.2993 86.4189 86.3211 86.4096 86.3452C86.4003 86.3692 86.3961 86.3949 86.3973 86.4207V99.5234C86.3922 99.5511 86.3934 99.5797 86.4009 99.6068C86.4084 99.634 86.4219 99.6591 86.4406 99.6802C86.4592 99.7013 86.4824 99.7179 86.5084 99.7287C86.5344 99.7395 86.5625 99.7441 86.5906 99.7424V99.7424Z" fill="#2C2C2C"/>
<path d="M112.451 92.2646C112.687 92.2646 112.804 92.4162 112.804 92.652V94.7151C112.804 94.9929 112.645 95.1024 112.376 95.0266C112.107 94.9508 111.712 94.9508 111.443 94.9508C110.593 94.9312 109.752 95.1326 109.003 95.5355C108.253 95.9384 107.621 96.529 107.167 97.2497C106.968 97.5351 106.87 97.879 106.889 98.2265V110.302C106.893 110.354 106.886 110.407 106.868 110.456C106.85 110.505 106.821 110.549 106.785 110.587C106.748 110.624 106.704 110.653 106.656 110.673C106.607 110.692 106.555 110.7 106.503 110.698H104.444C104.392 110.7 104.34 110.692 104.292 110.673C104.243 110.653 104.199 110.624 104.163 110.587C104.126 110.549 104.098 110.505 104.08 110.456C104.062 110.407 104.054 110.354 104.058 110.302V92.9972C104.056 92.9457 104.064 92.8943 104.083 92.8462C104.101 92.7981 104.13 92.7544 104.166 92.718C104.202 92.6815 104.246 92.6531 104.294 92.6345C104.342 92.6158 104.393 92.6075 104.444 92.6099H106.31C106.361 92.6075 106.412 92.6158 106.46 92.6345C106.508 92.6531 106.552 92.6815 106.588 92.718C106.625 92.7544 106.653 92.7981 106.672 92.8462C106.69 92.8943 106.699 92.9457 106.696 92.9972V94.4035C106.696 94.5972 106.814 94.673 106.973 94.5214C107.564 93.7927 108.311 93.2074 109.16 92.8093C110.008 92.4112 110.935 92.2106 111.872 92.2225C112.066 92.2156 112.26 92.2297 112.451 92.2646V92.2646Z" fill="#2C2C2C"/>
<path d="M114.434 101.654C114.494 99.8619 115.078 98.1275 116.115 96.6666C117.151 95.2057 118.594 94.083 120.263 93.4387C121.932 92.7943 123.754 92.6567 125.5 93.0431C127.247 93.4295 128.841 94.3227 130.084 95.6114C131.328 96.9001 132.165 98.5271 132.491 100.29C132.818 102.052 132.62 103.872 131.921 105.522C131.223 107.172 130.055 108.58 128.563 109.569C127.071 110.558 125.322 111.085 123.534 111.085C122.313 111.081 121.106 110.832 119.984 110.353C118.861 109.873 117.846 109.173 116.998 108.294C116.149 107.415 115.486 106.375 115.045 105.234C114.605 104.093 114.397 102.876 114.434 101.654V101.654ZM129.759 101.654C129.759 97.9147 127.239 94.8327 123.534 94.8327C119.828 94.8327 117.316 97.9147 117.316 101.654C117.316 105.392 119.837 108.474 123.534 108.474C127.23 108.474 129.759 105.418 129.759 101.654Z" fill="#2C2C2C"/>
<path d="M134.305 118.293C133.96 118.217 133.767 118.057 133.801 117.745L134.036 115.994C134.036 115.724 134.229 115.64 134.464 115.724C134.83 115.837 135.208 115.902 135.59 115.918C136.834 115.918 137.271 114.941 137.271 113.813V92.9967C137.268 92.9452 137.277 92.8938 137.295 92.8457C137.314 92.7976 137.342 92.754 137.378 92.7175C137.415 92.681 137.458 92.6526 137.506 92.634C137.554 92.6154 137.606 92.607 137.657 92.6094H139.724C139.775 92.607 139.827 92.6154 139.875 92.634C139.923 92.6526 139.966 92.681 140.003 92.7175C140.039 92.754 140.067 92.7976 140.086 92.8457C140.104 92.8938 140.113 92.9452 140.11 92.9967V113.771C140.11 116.777 138.43 118.453 135.91 118.453C135.371 118.451 134.833 118.397 134.305 118.293V118.293ZM136.598 86.2938C136.605 85.8807 136.733 85.4788 136.966 85.138C137.199 84.7972 137.527 84.5326 137.909 84.3773C138.291 84.2219 138.71 84.1826 139.114 84.2642C139.518 84.3459 139.889 84.5448 140.181 84.8364C140.473 85.1279 140.673 85.4991 140.756 85.9038C140.839 86.3084 140.801 86.7286 140.648 87.112C140.494 87.4954 140.232 87.825 139.893 88.0599C139.554 88.2947 139.153 88.4244 138.741 88.4327C138.17 88.4282 137.624 88.1971 137.222 87.7899C136.82 87.3827 136.596 86.8326 136.598 86.2601V86.2938Z" fill="#2C2C2C"/>
<path d="M144.731 101.654C144.731 95.9276 148.537 92.2224 153.52 92.2224C158.502 92.2224 162.258 96.0034 162.258 101.207C162.274 101.505 162.274 101.803 162.258 102.1C162.253 102.147 162.238 102.192 162.215 102.233C162.193 102.274 162.162 102.31 162.125 102.339C162.089 102.368 162.046 102.389 162.001 102.402C161.956 102.414 161.909 102.417 161.863 102.412H148.075C147.798 102.412 147.647 102.529 147.723 102.925C148.151 106.294 150.445 108.534 153.906 108.534C154.863 108.524 155.809 108.319 156.684 107.931C157.559 107.543 158.347 106.98 158.998 106.277C159.275 105.999 159.468 105.923 159.662 106.117L160.947 107.523C160.983 107.555 161.011 107.593 161.031 107.637C161.051 107.681 161.061 107.728 161.061 107.776C161.061 107.823 161.051 107.871 161.031 107.914C161.011 107.958 160.983 107.997 160.947 108.028C160.045 108.996 158.955 109.768 157.744 110.296C156.533 110.825 155.227 111.099 153.906 111.102C148.537 111.119 144.731 107.38 144.731 101.654ZM159.191 99.7001C159.017 98.3245 158.342 97.062 157.295 96.1556C156.248 95.2493 154.903 94.7631 153.52 94.7908C152.128 94.7777 150.78 95.2732 149.727 96.1846C148.674 97.096 147.988 98.3607 147.798 99.7422C147.723 100.054 147.798 100.172 148.151 100.172H158.847C159.157 100.172 159.275 100.054 159.191 99.7001V99.7001Z" fill="#2C2C2C"/>
<path d="M174.44 92.2223C175.878 92.1693 177.305 92.4934 178.579 93.1624C179.854 93.8314 180.932 94.8222 181.708 96.0369C181.736 96.0823 181.754 96.133 181.761 96.1857C181.769 96.2385 181.765 96.2923 181.751 96.3437C181.737 96.395 181.712 96.4429 181.679 96.4843C181.645 96.5257 181.604 96.5598 181.556 96.5843L179.876 97.519C179.832 97.5497 179.781 97.5702 179.728 97.5792C179.674 97.5882 179.62 97.5854 179.568 97.5709C179.516 97.5565 179.467 97.5307 179.426 97.4956C179.385 97.4604 179.352 97.4167 179.33 97.3674C178.803 96.5557 178.074 95.8957 177.215 95.4527C176.356 95.0096 175.397 94.7989 174.432 94.8412C170.693 94.8412 168.29 97.6116 168.29 101.662C168.29 105.712 170.693 108.483 174.432 108.483C175.394 108.507 176.347 108.289 177.203 107.847C178.059 107.406 178.79 106.756 179.33 105.957C179.353 105.908 179.386 105.864 179.426 105.829C179.467 105.794 179.515 105.768 179.567 105.752C179.619 105.737 179.673 105.733 179.726 105.741C179.78 105.749 179.831 105.768 179.876 105.797L181.556 106.731C181.604 106.756 181.645 106.79 181.679 106.831C181.712 106.873 181.737 106.921 181.751 106.972C181.765 107.023 181.769 107.077 181.761 107.13C181.754 107.183 181.736 107.233 181.708 107.279C180.422 109.855 177.507 111.102 174.44 111.102C169.189 111.102 165.417 107.321 165.417 101.67C165.417 96.0201 169.189 92.2223 174.44 92.2223Z" fill="#2C2C2C"/>
<path d="M187.311 85.5612L189.412 84.4244C189.681 84.3065 189.874 84.4244 189.874 84.7023V92.4157C189.873 92.4415 189.877 92.4672 189.886 92.4912C189.896 92.5153 189.91 92.5371 189.928 92.5554C189.946 92.5736 189.968 92.5878 189.992 92.5971C190.016 92.6064 190.042 92.6106 190.067 92.6094H192.21C192.261 92.607 192.312 92.6154 192.36 92.634C192.408 92.6526 192.452 92.6811 192.488 92.7175C192.525 92.754 192.553 92.7977 192.572 92.8457C192.59 92.8938 192.599 92.9453 192.596 92.9968V94.6809C192.6 94.7331 192.592 94.7855 192.574 94.8346C192.556 94.8837 192.528 94.9284 192.492 94.9658C192.455 95.0032 192.411 95.0324 192.363 95.0515C192.314 95.0706 192.262 95.0792 192.21 95.0767H190.067C190.042 95.0755 190.016 95.0797 189.992 95.089C189.968 95.0983 189.946 95.1125 189.928 95.1308C189.91 95.149 189.896 95.1708 189.886 95.1949C189.877 95.2189 189.873 95.2446 189.874 95.2704V110.301C189.878 110.354 189.87 110.406 189.852 110.455C189.834 110.504 189.806 110.549 189.769 110.586C189.733 110.624 189.689 110.653 189.64 110.672C189.592 110.691 189.54 110.7 189.488 110.697H187.463C187.41 110.7 187.358 110.691 187.309 110.672C187.26 110.653 187.215 110.624 187.178 110.587C187.141 110.549 187.112 110.505 187.093 110.456C187.074 110.407 187.065 110.354 187.068 110.301V95.262C187.069 95.2362 187.065 95.2105 187.056 95.1864C187.046 95.1624 187.032 95.1406 187.014 95.1223C186.996 95.1041 186.974 95.0899 186.95 95.0806C186.926 95.0713 186.9 95.0671 186.875 95.0683H184.741C184.688 95.0707 184.636 95.0621 184.587 95.043C184.538 95.024 184.493 94.9949 184.456 94.9577C184.419 94.9204 184.39 94.8759 184.371 94.8268C184.352 94.7776 184.343 94.7251 184.346 94.6725V92.9883C184.343 92.9361 184.352 92.8839 184.371 92.8352C184.39 92.7865 184.419 92.7424 184.456 92.7058C184.494 92.6692 184.538 92.641 184.587 92.6229C184.636 92.6048 184.688 92.5974 184.741 92.601H186.875C186.9 92.6022 186.926 92.598 186.95 92.5887C186.974 92.5794 186.996 92.5652 187.014 92.5469C187.032 92.5287 187.046 92.5069 187.056 92.4828C187.065 92.4588 187.069 92.4331 187.068 92.4073V86.0496C187.053 85.9529 187.068 85.854 187.112 85.7665C187.156 85.679 187.225 85.6072 187.311 85.5612V85.5612Z" fill="#2C2C2C"/>
</svg>
