<svg width="445" height="119" viewBox="0 0 445 119" fill="none" xmlns="http://www.w3.org/2000/svg">
<path d="M16.1436 60.0223C16.0394 59.9839 15.9439 59.9253 15.8625 59.8498C15.7811 59.7743 15.7154 59.6835 15.6692 59.5825C15.6231 59.4816 15.5973 59.3725 15.5935 59.2615C15.5896 59.1506 15.6077 59.04 15.6468 58.936L16.9857 54.7677C17.1457 54.2709 17.4825 54.1025 18.0635 54.3551C20.1098 55.2603 22.327 55.7141 24.5644 55.6856C31.3937 55.6856 36.0672 50.8521 36.0672 44.4354C36.0672 38.1872 32.4799 34.2715 25.0612 32.3516L19.5624 30.9369C18.4846 30.6843 17.8783 30.0948 18.4846 28.7728L27.8148 8.60497C27.899 8.35234 27.8148 8.10814 27.5622 8.10814H6.89757C6.84242 8.10441 6.78711 8.11252 6.73536 8.13194C6.68361 8.15136 6.63661 8.18162 6.59753 8.22071C6.55844 8.2598 6.52817 8.30679 6.50875 8.35855C6.48934 8.4103 6.48123 8.46561 6.48496 8.52076V59.7192C6.4924 59.8317 6.47571 59.9445 6.43603 60.05C6.39634 60.1556 6.33457 60.2514 6.25484 60.3311C6.17511 60.4109 6.07927 60.4726 5.97373 60.5123C5.86819 60.552 5.75539 60.5687 5.64288 60.5612H1.13775C1.02524 60.5687 0.912439 60.552 0.806899 60.5123C0.701358 60.4726 0.605516 60.4109 0.525786 60.3311C0.446056 60.2514 0.384287 60.1556 0.344601 60.05C0.304915 59.9445 0.288228 59.8317 0.295671 59.7192V3.02198C0.288228 2.90947 0.304915 2.79667 0.344601 2.69113C0.384287 2.58559 0.446056 2.48975 0.525786 2.41002C0.605516 2.33029 0.701358 2.26851 0.806899 2.22883C0.912439 2.18914 1.02524 2.17246 1.13775 2.1799H35.8988C36.1029 2.18127 36.3031 2.2364 36.4792 2.33974C36.6552 2.44308 36.801 2.59097 36.9017 2.76854C37.0025 2.94611 37.0546 3.14708 37.053 3.35123C37.0514 3.55538 36.996 3.75549 36.8924 3.93143L26.4001 25.6908C26.1475 26.1876 26.3159 26.4402 26.8127 26.6086C37.6503 29.6906 42.4754 35.1052 42.4754 44.4354C42.4754 54.1025 34.8967 61.7654 24.5644 61.7654C21.6695 61.7501 18.8067 61.1575 16.1436 60.0223Z" fill="white"/>
<path d="M60.7223 3.02183V59.719C60.7298 59.8315 60.7131 59.9443 60.6734 60.0499C60.6337 60.1554 60.5719 60.2512 60.4922 60.331C60.4125 60.4107 60.3166 60.4725 60.2111 60.5122C60.1056 60.5519 59.9928 60.5685 59.8802 60.5611H55.3835C55.2707 60.57 55.1573 60.5543 55.0511 60.5151C54.9449 60.4759 54.8485 60.4142 54.7684 60.3341C54.6884 60.2541 54.6267 60.1577 54.5875 60.0515C54.5483 59.9453 54.5326 59.8319 54.5415 59.719V3.02183C54.5326 2.90899 54.5483 2.79557 54.5875 2.68938C54.6267 2.58319 54.6884 2.48676 54.7684 2.40672C54.8485 2.32668 54.9449 2.26495 55.0511 2.22577C55.1573 2.18658 55.2707 2.17088 55.3835 2.17975H59.8802C59.9928 2.17231 60.1056 2.18899 60.2111 2.22867C60.3166 2.26836 60.4125 2.33014 60.4922 2.40987C60.5719 2.4896 60.6337 2.58544 60.6734 2.69098C60.7131 2.79652 60.7298 2.90932 60.7223 3.02183Z" fill="white"/>
<path d="M73.1348 31.3579C73.1348 13.7753 86.3807 0.773605 102.961 0.773605C119.542 0.773605 132.796 13.7753 132.796 31.3579C132.796 48.9405 119.516 61.9338 102.961 61.9338C86.4059 61.9338 73.1348 48.9405 73.1348 31.3579ZM126.295 31.3579C126.295 17.2699 116.384 6.85342 102.961 6.85342C89.5385 6.85342 79.6356 17.2699 79.6356 31.3579C79.6356 45.4459 89.5469 55.854 102.961 55.854C116.376 55.854 126.295 45.4038 126.295 31.3579Z" fill="white"/>
<path d="M173.41 36.5199V32.2674C173.402 32.1545 173.417 32.0411 173.457 31.9349C173.496 31.8287 173.557 31.7323 173.637 31.6522C173.717 31.5722 173.814 31.5105 173.92 31.4713C174.026 31.4321 174.14 31.4164 174.253 31.4253H198.589C198.701 31.4164 198.815 31.4321 198.921 31.4713C199.027 31.5105 199.124 31.5722 199.204 31.6522C199.284 31.7323 199.346 31.8287 199.385 31.9349C199.424 32.0411 199.44 32.1545 199.431 32.2674C198.589 50.5994 187.094 61.9338 170.514 61.9338C154.093 61.9338 141.353 49.4373 141.353 31.3579C141.353 13.2785 154.043 0.773605 170.707 0.773605C181.04 0.773605 189.789 5.1861 194.951 12.6048C195.028 12.6877 195.086 12.787 195.12 12.8953C195.154 13.0036 195.164 13.1181 195.148 13.2305C195.131 13.3428 195.09 13.4501 195.027 13.5444C194.964 13.6387 194.88 13.7176 194.782 13.7753L191.119 16.3015C191.036 16.3776 190.936 16.4343 190.828 16.4674C190.72 16.5006 190.606 16.5094 190.494 16.4933C190.383 16.4772 190.276 16.4366 190.181 16.3743C190.087 16.312 190.008 16.2297 189.949 16.1331C185.873 10.1291 178.867 6.87026 170.707 6.87026C157.285 6.87026 147.702 16.7057 147.702 31.3748C147.702 46.0438 157.285 55.8708 170.438 55.8708C181.772 55.8708 190.1 49.2016 192.189 37.7914C192.265 37.5388 192.105 37.3704 191.852 37.3704H174.168C174.062 37.3661 173.958 37.3406 173.862 37.2951C173.766 37.2497 173.68 37.1854 173.609 37.106C173.538 37.0267 173.484 36.9338 173.45 36.8331C173.416 36.7324 173.402 36.6259 173.41 36.5199Z" fill="white"/>
<path d="M216.197 60.5612H211.691C211.579 60.5687 211.466 60.552 211.361 60.5123C211.255 60.4726 211.159 60.4109 211.08 60.3311C211 60.2514 210.938 60.1556 210.898 60.05C210.859 59.9445 210.842 59.8317 210.849 59.7192V3.02197C210.842 2.90947 210.859 2.79666 210.898 2.69112C210.938 2.58558 211 2.48974 211.08 2.41001C211.159 2.33028 211.255 2.2685 211.361 2.22882C211.466 2.18913 211.579 2.17245 211.691 2.1799H227.944C239.775 2.1799 248.861 9.4302 248.861 21.9267C248.861 31.9306 242.857 38.1788 234.545 40.5955C233.956 40.764 233.796 41.0082 234.209 41.5134L248.692 59.5171C249.105 60.0981 248.861 60.5191 248.187 60.5191H242.36C242.085 60.5607 241.804 60.5196 241.552 60.4012C241.3 60.2828 241.089 60.0923 240.945 59.8539L227.11 42.1702C226.978 41.941 226.781 41.7557 226.545 41.6374C226.308 41.5191 226.042 41.473 225.779 41.505H217.443C217.388 41.5013 217.332 41.5094 217.281 41.5288C217.229 41.5482 217.182 41.5785 217.143 41.6176C217.104 41.6566 217.073 41.7036 217.054 41.7554C217.035 41.8071 217.027 41.8625 217.03 41.9176V59.7192C217.038 59.8309 217.021 59.943 216.982 60.0479C216.943 60.1528 216.882 60.2482 216.803 60.3278C216.724 60.4074 216.629 60.4694 216.525 60.5096C216.42 60.5498 216.308 60.5674 216.197 60.5612ZM217.039 8.56286V35.1894C217.035 35.2445 217.043 35.2999 217.062 35.3516C217.082 35.4034 217.112 35.4504 217.151 35.4894C217.19 35.5285 217.237 35.5588 217.289 35.5782C217.341 35.5976 217.396 35.6057 217.451 35.602H227.371C235.522 35.602 242.461 31.6021 242.461 21.8256C242.461 12.0491 235.522 8.10813 227.363 8.10813H217.443C217.388 8.1044 217.332 8.11252 217.281 8.13193C217.229 8.15135 217.182 8.18162 217.143 8.2207C217.104 8.25979 217.073 8.30679 217.054 8.35854C217.035 8.41029 217.027 8.4656 217.03 8.52075L217.039 8.56286Z" fill="white"/>
<path d="M284.514 3.1064L301.684 59.6015C301.844 60.1825 301.6 60.5194 301.01 60.5194H296.353C296.127 60.5314 295.903 60.4742 295.71 60.3553C295.518 60.2364 295.366 60.0616 295.276 59.8541L291.604 47.3492C291.561 47.144 291.444 46.9621 291.274 46.839C291.104 46.716 290.895 46.6607 290.686 46.684H266.687C266.479 46.6607 266.269 46.716 266.099 46.839C265.93 46.9621 265.812 47.144 265.769 47.3492L262.098 59.8541C262.011 60.0744 261.857 60.2614 261.657 60.3885C261.457 60.5156 261.222 60.5761 260.986 60.5615H256.313C255.732 60.5615 255.471 60.2246 255.647 59.6436L272.851 3.1064C272.861 2.97501 272.896 2.84683 272.956 2.72931C273.015 2.61179 273.098 2.50728 273.198 2.42187C273.298 2.33646 273.414 2.27184 273.54 2.23179C273.665 2.19173 273.798 2.17703 273.929 2.18854H283.436C283.567 2.17703 283.699 2.19173 283.825 2.23179C283.95 2.27184 284.067 2.33646 284.167 2.42187C284.267 2.50728 284.35 2.61179 284.409 2.72931C284.469 2.84683 284.504 2.97501 284.514 3.1064ZM268.186 40.7726H289.179C289.432 40.7726 289.6 40.6042 289.516 40.2674L280.017 8.52097C279.933 8.27677 279.849 8.10835 279.512 8.10835H277.828C277.491 8.10835 277.407 8.27677 277.322 8.52097L267.849 40.2674C267.765 40.6042 267.933 40.7726 268.186 40.7726Z" fill="white"/>
<path d="M348.756 22.6086C348.756 35.105 340.588 43.0206 326.761 43.0206H318.921C318.866 43.0182 318.812 43.0272 318.761 43.0471C318.709 43.067 318.663 43.0973 318.624 43.1361C318.585 43.1749 318.555 43.2214 318.535 43.2725C318.515 43.3237 318.506 43.3784 318.509 43.4332V59.719C318.516 59.8315 318.499 59.9443 318.46 60.0499C318.42 60.1554 318.358 60.2512 318.278 60.331C318.199 60.4107 318.103 60.4725 317.997 60.5122C317.892 60.5518 317.779 60.5685 317.667 60.5611H313.195C313.082 60.57 312.969 60.5543 312.863 60.5151C312.756 60.4759 312.66 60.4142 312.58 60.3341C312.5 60.2541 312.438 60.1576 312.399 60.0515C312.36 59.9453 312.344 59.8318 312.353 59.719V3.02182C312.344 2.90898 312.36 2.79556 312.399 2.68937C312.438 2.58318 312.5 2.48675 312.58 2.40671C312.66 2.32668 312.756 2.26494 312.863 2.22576C312.969 2.18658 313.082 2.17088 313.195 2.17974H326.778C340.588 2.18817 348.756 10.1037 348.756 22.6086ZM318.921 37.1008H326.171C336.42 37.1008 342.255 32.2672 342.255 22.6086C342.255 12.9499 336.42 8.10798 326.171 8.10798H318.921C318.866 8.10559 318.812 8.11463 318.761 8.13453C318.709 8.15442 318.663 8.18473 318.624 8.22353C318.585 8.26233 318.555 8.30878 318.535 8.35992C318.515 8.41106 318.506 8.46578 318.509 8.5206V36.6881C318.505 36.7433 318.513 36.7986 318.532 36.8504C318.552 36.9021 318.582 36.9491 318.621 36.9882C318.66 37.0273 318.707 37.0575 318.759 37.077C318.811 37.0964 318.866 37.1045 318.921 37.1008Z" fill="white"/>
<path d="M365.404 28.2674H391.231C391.287 28.2724 391.343 28.2652 391.396 28.2464C391.448 28.2275 391.496 28.1974 391.536 28.1582C391.576 28.119 391.608 28.0715 391.627 28.0191C391.647 27.9667 391.656 27.9107 391.652 27.8547V3.02183C391.643 2.90899 391.659 2.79557 391.698 2.68938C391.737 2.58319 391.799 2.48676 391.879 2.40672C391.959 2.32668 392.055 2.26495 392.161 2.22577C392.268 2.18658 392.381 2.17088 392.494 2.17975H396.991C397.103 2.17231 397.216 2.18899 397.321 2.22867C397.427 2.26836 397.523 2.33014 397.603 2.40987C397.682 2.4896 397.744 2.58544 397.784 2.69098C397.823 2.79652 397.84 2.90932 397.833 3.02183V59.719C397.84 59.8315 397.823 59.9443 397.784 60.0499C397.744 60.1554 397.682 60.2512 397.603 60.331C397.523 60.4107 397.427 60.4725 397.321 60.5122C397.216 60.5519 397.103 60.5685 396.991 60.5611H392.494C392.381 60.57 392.268 60.5543 392.161 60.5151C392.055 60.4759 391.959 60.4142 391.879 60.3341C391.799 60.2541 391.737 60.1577 391.698 60.0515C391.659 59.9453 391.643 59.8319 391.652 59.719V34.6082C391.655 34.552 391.647 34.4956 391.627 34.4428C391.607 34.39 391.577 34.3421 391.537 34.3022C391.497 34.2624 391.449 34.2315 391.396 34.2116C391.343 34.1918 391.287 34.1835 391.231 34.1872H365.404C365.348 34.1835 365.291 34.1918 365.239 34.2116C365.186 34.2315 365.138 34.2624 365.098 34.3022C365.058 34.3421 365.027 34.39 365.008 34.4428C364.988 34.4956 364.979 34.552 364.983 34.6082V59.719C364.992 59.8319 364.976 59.9453 364.937 60.0515C364.898 60.1577 364.836 60.2541 364.756 60.3341C364.676 60.4142 364.58 60.4759 364.473 60.5151C364.367 60.5543 364.254 60.57 364.141 60.5611H359.644C359.531 60.57 359.418 60.5543 359.312 60.5151C359.206 60.4759 359.109 60.4142 359.029 60.3341C358.949 60.2541 358.887 60.1577 358.848 60.0515C358.809 59.9453 358.793 59.8319 358.802 59.719V3.02183C358.793 2.90899 358.809 2.79557 358.848 2.68938C358.887 2.58319 358.949 2.48676 359.029 2.40672C359.109 2.32668 359.206 2.26495 359.312 2.22577C359.418 2.18658 359.531 2.17088 359.644 2.17975H364.141C364.254 2.17088 364.367 2.18658 364.473 2.22577C364.58 2.26495 364.676 2.32668 364.756 2.40672C364.836 2.48676 364.898 2.58319 364.937 2.68938C364.976 2.79557 364.992 2.90899 364.983 3.02183V27.8547C364.979 27.9107 364.987 27.9667 365.007 28.0191C365.027 28.0715 365.058 28.119 365.098 28.1582C365.138 28.1974 365.187 28.2275 365.239 28.2464C365.292 28.2652 365.348 28.2724 365.404 28.2674Z" fill="white"/>
<path d="M423.322 59.7192V41.1935C423.347 40.5677 423.235 39.944 422.994 39.3662L407.912 3.19045C407.847 3.08256 407.814 2.95838 407.817 2.83239C407.819 2.70639 407.858 2.58376 407.927 2.47877C407.997 2.37377 408.095 2.29074 408.21 2.23933C408.325 2.18792 408.453 2.17025 408.577 2.18838H413.495C413.702 2.16732 413.91 2.22364 414.077 2.34648C414.245 2.46931 414.362 2.64997 414.405 2.85362L426.076 31.1896C426.244 31.6022 426.573 31.6022 426.741 31.1896L438.404 2.85362C438.455 2.65277 438.574 2.47614 438.742 2.35455C438.91 2.23297 439.115 2.17416 439.322 2.18838H444.239C444.364 2.17025 444.491 2.18792 444.606 2.23933C444.722 2.29074 444.82 2.37377 444.889 2.47877C444.959 2.58376 444.997 2.70639 445 2.83239C445.003 2.95838 444.97 3.08256 444.905 3.19045L429.823 39.3999C429.579 39.9769 429.467 40.6012 429.495 41.2272V59.7192C429.51 59.8334 429.499 59.9496 429.462 60.0587C429.425 60.1678 429.363 60.2669 429.282 60.3484C429.2 60.4299 429.101 60.4914 428.992 60.5284C428.883 60.5653 428.767 60.5766 428.653 60.5613H424.147C424.035 60.5737 423.92 60.5604 423.813 60.5222C423.706 60.484 423.61 60.422 423.53 60.3409C423.451 60.2598 423.391 60.1617 423.355 60.054C423.319 59.9463 423.307 59.8318 423.322 59.7192Z" fill="white"/>
<path d="M0.000424949 110.076V83.5754C-0.00207889 83.5232 0.00650252 83.471 0.025622 83.4223C0.0447416 83.3736 0.0739633 83.3295 0.111351 83.2929C0.148739 83.2563 0.193445 83.2281 0.242541 83.21C0.291637 83.1919 0.344001 83.1845 0.39619 83.1881H3.08242C3.18126 83.1931 3.27778 83.2199 3.3651 83.2665C3.45243 83.313 3.52842 83.3783 3.58768 83.4575L11.0738 95.9287C11.2253 96.2066 11.3011 96.2066 11.4611 95.9287L18.9472 83.4575C19.006 83.3778 19.0819 83.3123 19.1693 83.2657C19.2568 83.2191 19.3535 83.1925 19.4524 83.1881H22.1387C22.1905 83.1843 22.2425 83.1918 22.2912 83.2099C22.34 83.228 22.3842 83.2564 22.4209 83.2932C22.4577 83.3299 22.4861 83.3742 22.5042 83.4229C22.5224 83.4716 22.5298 83.5236 22.526 83.5754V110.076C22.5297 110.128 22.5222 110.18 22.5041 110.229C22.4861 110.278 22.4578 110.323 22.4212 110.361C22.3846 110.398 22.3405 110.427 22.2918 110.446C22.2431 110.465 22.1909 110.474 22.1387 110.471H20.0335C19.9812 110.474 19.929 110.465 19.8803 110.446C19.8316 110.427 19.7875 110.398 19.751 110.361C19.7144 110.323 19.6861 110.278 19.668 110.229C19.65 110.18 19.6425 110.128 19.6461 110.076V88.409C19.6461 88.1395 19.4861 88.0974 19.3682 88.3332L11.7306 100.838C11.6892 100.914 11.6283 100.977 11.5543 101.021C11.4802 101.064 11.3956 101.088 11.3095 101.088C11.2234 101.088 11.1389 101.064 11.0648 101.021C10.9908 100.977 10.9298 100.914 10.8885 100.838L3.15822 88.35C3.04033 88.1142 2.88875 88.1563 2.88875 88.4258V110.076C2.89238 110.128 2.88491 110.18 2.86684 110.229C2.84877 110.278 2.82052 110.323 2.78393 110.361C2.74733 110.398 2.70323 110.427 2.65454 110.446C2.60584 110.465 2.55364 110.474 2.50139 110.471H0.39619C0.343579 110.474 0.291052 110.465 0.24195 110.446C0.192847 110.427 0.148257 110.398 0.111017 110.361C0.0737772 110.324 0.0447028 110.279 0.0256606 110.23C0.00661837 110.181 -0.00197023 110.128 0.000424949 110.076Z" fill="white"/>
<path d="M27.5195 101.427C27.5195 95.7012 31.3426 91.9961 36.3277 91.9961C41.3128 91.9961 45.06 95.777 45.06 100.998C45.0661 101.296 45.052 101.594 45.0179 101.891C45.0138 101.937 45.0004 101.982 44.9784 102.023C44.9565 102.063 44.9266 102.1 44.8905 102.129C44.8543 102.158 44.8127 102.179 44.768 102.192C44.7234 102.204 44.6766 102.208 44.6306 102.202H30.871C30.6015 102.202 30.4415 102.32 30.5173 102.716C30.9468 106.084 33.2457 108.324 36.715 108.324C37.6756 108.315 38.6242 108.11 39.503 107.722C40.3818 107.334 41.1724 106.771 41.8265 106.067C42.0959 105.789 42.2896 105.714 42.4833 105.907L43.7717 107.313C43.8075 107.345 43.8362 107.384 43.8559 107.428C43.8755 107.471 43.8857 107.518 43.8857 107.566C43.8857 107.614 43.8755 107.661 43.8559 107.705C43.8362 107.748 43.8075 107.787 43.7717 107.819C42.868 108.786 41.7755 109.558 40.5618 110.087C39.3481 110.615 38.0389 110.89 36.715 110.892C31.3426 110.892 27.5195 107.153 27.5195 101.427ZM42.0454 99.4737C41.8691 98.0974 41.1904 96.8348 40.1396 95.9286C39.0888 95.0224 37.7402 94.5365 36.3529 94.5644C34.9594 94.5516 33.6091 95.0474 32.555 95.9589C31.5008 96.8704 30.8153 98.1351 30.6268 99.5158C30.5426 99.8274 30.6268 99.9453 30.9721 99.9453H41.6917C41.978 99.9453 42.0959 99.8274 42.0454 99.4737Z" fill="white"/>
<path d="M63.4936 82.2531H65.5567C65.6085 82.2493 65.6605 82.2568 65.7093 82.2749C65.758 82.293 65.8022 82.3215 65.8389 82.3582C65.8757 82.3949 65.9041 82.4392 65.9222 82.4879C65.9404 82.5366 65.9478 82.5886 65.944 82.6404V110.075C65.9477 110.128 65.9402 110.18 65.9221 110.229C65.9041 110.278 65.8758 110.323 65.8392 110.36C65.8026 110.398 65.7585 110.427 65.7098 110.446C65.6611 110.465 65.6089 110.474 65.5567 110.471H63.6452C63.5929 110.474 63.5407 110.465 63.492 110.446C63.4433 110.427 63.3992 110.398 63.3626 110.36C63.326 110.323 63.2978 110.278 63.2797 110.229C63.2616 110.18 63.2542 110.128 63.2578 110.075V108.711C63.2578 108.442 63.1062 108.4 62.9126 108.635C62.1675 109.399 61.2665 109.993 60.271 110.376C59.2756 110.76 58.2091 110.924 57.1443 110.859C52.0918 110.859 48.252 107.078 48.252 101.427C48.252 95.7769 52.1087 91.9959 57.1443 91.9959C58.169 91.9528 59.1921 92.1129 60.1546 92.467C61.1172 92.8211 62.0001 93.3621 62.7526 94.059C62.9883 94.2948 63.1062 94.1769 63.1062 93.9411V82.6404C63.1025 82.5886 63.1099 82.5366 63.128 82.4879C63.1462 82.4392 63.1746 82.3949 63.2113 82.3582C63.2481 82.3215 63.2923 82.293 63.341 82.2749C63.3897 82.2568 63.4418 82.2493 63.4936 82.2531ZM62.9462 105.402C63.0539 105.212 63.1092 104.997 63.1062 104.779V98.0421C63.1092 97.8238 63.0539 97.6088 62.9462 97.4189C62.3858 96.5038 61.5921 95.7541 60.6466 95.2466C59.7011 94.7391 58.6377 94.492 57.5653 94.5306C53.7086 94.5306 51.1403 97.301 51.1403 101.394C51.1403 105.486 53.6665 108.248 57.5653 108.248C58.6338 108.292 59.6948 108.052 60.6401 107.552C61.5854 107.052 62.3812 106.31 62.9462 105.402Z" fill="white"/>
<path d="M99.7368 92.7373C99.7368 98.5813 95.9222 102.286 89.4466 102.286H85.7835C85.7578 102.285 85.732 102.289 85.708 102.299C85.6839 102.308 85.6621 102.322 85.6439 102.341C85.6257 102.359 85.6114 102.381 85.6021 102.405C85.5928 102.429 85.5886 102.454 85.5898 102.48V110.059C85.5935 110.111 85.586 110.163 85.5679 110.212C85.5499 110.262 85.5216 110.306 85.485 110.344C85.4484 110.381 85.4043 110.41 85.3556 110.429C85.3069 110.449 85.2547 110.457 85.2025 110.455H83.0973C83.045 110.457 82.9928 110.449 82.9441 110.429C82.8955 110.41 82.8513 110.381 82.8148 110.344C82.7782 110.306 82.7499 110.262 82.7318 110.212C82.7138 110.163 82.7063 110.111 82.7099 110.059V83.5754C82.7062 83.5236 82.7136 83.4716 82.7318 83.4229C82.7499 83.3742 82.7783 83.3299 82.815 83.2932C82.8518 83.2564 82.896 83.228 82.9447 83.2099C82.9934 83.1918 83.0454 83.1843 83.0973 83.1881H89.4466C95.939 83.1881 99.7368 86.8932 99.7368 92.7373ZM85.7835 99.516H89.1518C93.9433 99.516 96.6716 97.2592 96.6716 92.7373C96.6716 88.2153 93.9433 86.0006 89.1518 86.0006H85.7835C85.7578 85.9994 85.732 86.0036 85.708 86.0129C85.6839 86.0222 85.6621 86.0365 85.6439 86.0547C85.6257 86.0729 85.6114 86.0948 85.6021 86.1188C85.5928 86.1428 85.5886 86.1686 85.5898 86.1943V99.2971C85.5846 99.3248 85.5859 99.3533 85.5934 99.3805C85.6009 99.4076 85.6145 99.4327 85.6332 99.4539C85.6519 99.475 85.6751 99.4915 85.7012 99.5023C85.7272 99.5131 85.7554 99.5178 85.7835 99.516Z" fill="white"/>
<path d="M111.702 92.0382C111.938 92.0382 112.056 92.1898 112.056 92.4256V94.4887C112.056 94.7666 111.896 94.8761 111.627 94.8003C111.357 94.7245 110.961 94.7245 110.692 94.7245C109.84 94.7048 108.997 94.9063 108.246 95.3092C107.495 95.712 106.861 96.3026 106.406 97.0234C106.206 97.3088 106.109 97.6527 106.128 98.0002V110.076C106.131 110.128 106.124 110.18 106.106 110.229C106.088 110.278 106.06 110.323 106.023 110.36C105.986 110.398 105.942 110.427 105.894 110.446C105.845 110.465 105.793 110.474 105.74 110.471H103.677C103.625 110.474 103.573 110.465 103.524 110.446C103.475 110.427 103.431 110.398 103.395 110.36C103.358 110.323 103.33 110.278 103.312 110.229C103.294 110.18 103.286 110.128 103.29 110.076V92.7709C103.288 92.7193 103.296 92.6679 103.315 92.6198C103.333 92.5717 103.362 92.5281 103.398 92.4916C103.435 92.4552 103.478 92.4267 103.526 92.4081C103.574 92.3895 103.626 92.3811 103.677 92.3835H105.547C105.598 92.3811 105.65 92.3895 105.698 92.4081C105.746 92.4267 105.789 92.4552 105.826 92.4916C105.862 92.5281 105.891 92.5717 105.909 92.6198C105.928 92.6679 105.936 92.7193 105.934 92.7709V94.1771C105.934 94.3708 106.052 94.4466 106.212 94.295C106.804 93.5663 107.553 92.981 108.403 92.5829C109.253 92.1848 110.183 91.9842 111.121 91.9961C111.316 91.9892 111.511 92.0033 111.702 92.0382Z" fill="white"/>
<path d="M113.69 101.427C113.749 99.6355 114.335 97.9011 115.374 96.4402C116.413 94.9793 117.859 93.8567 119.532 93.2123C121.204 92.5679 123.03 92.4303 124.78 92.8167C126.531 93.2031 128.129 94.0963 129.375 95.385C130.621 96.6737 131.46 98.3008 131.788 100.063C132.115 101.826 131.916 103.646 131.216 105.296C130.516 106.946 129.345 108.353 127.85 109.343C126.355 110.332 124.602 110.859 122.809 110.858C121.587 110.854 120.377 110.606 119.252 110.126C118.127 109.647 117.109 108.947 116.259 108.068C115.409 107.189 114.743 106.148 114.302 105.008C113.861 103.867 113.653 102.65 113.69 101.427ZM129.049 101.427C129.049 97.6883 126.523 94.6063 122.809 94.6063C119.096 94.6063 116.578 97.6883 116.578 101.427C116.578 105.166 119.104 108.248 122.809 108.248C126.515 108.248 129.049 105.191 129.049 101.427Z" fill="white"/>
<path d="M133.605 118.066C133.259 117.991 133.066 117.831 133.099 117.519L133.335 115.768C133.335 115.498 133.529 115.414 133.765 115.498C134.131 115.61 134.51 115.675 134.893 115.692C136.139 115.692 136.577 114.715 136.577 113.587V92.7704C136.575 92.7189 136.583 92.6674 136.602 92.6193C136.62 92.5713 136.649 92.5276 136.685 92.4911C136.722 92.4547 136.766 92.4262 136.814 92.4076C136.862 92.389 136.913 92.3806 136.965 92.383H139.036C139.088 92.3806 139.139 92.389 139.187 92.4076C139.235 92.4262 139.279 92.4547 139.315 92.4911C139.352 92.5276 139.38 92.5713 139.399 92.6193C139.417 92.6674 139.426 92.7189 139.423 92.7704V113.544C139.423 116.551 137.739 118.226 135.213 118.226C134.673 118.225 134.135 118.171 133.605 118.066ZM135.904 86.0674C135.91 85.6544 136.038 85.2524 136.272 84.9116C136.505 84.5708 136.834 84.3063 137.217 84.1509C137.6 83.9955 138.02 83.9562 138.425 84.0378C138.829 84.1195 139.202 84.3185 139.494 84.61C139.787 84.9016 139.987 85.2728 140.071 85.6774C140.154 86.082 140.116 86.5022 139.962 86.8856C139.808 87.269 139.545 87.5987 139.205 87.8335C138.865 88.0683 138.464 88.198 138.051 88.2063C137.478 88.2019 136.931 87.9707 136.529 87.5635C136.126 87.1563 135.901 86.6063 135.904 86.0337V86.0674Z" fill="white"/>
<path d="M144.055 101.427C144.055 95.7012 147.869 91.9961 152.863 91.9961C157.856 91.9961 161.62 95.777 161.62 100.981C161.636 101.278 161.636 101.576 161.62 101.874C161.615 101.92 161.601 101.965 161.578 102.006C161.555 102.047 161.525 102.083 161.488 102.112C161.451 102.141 161.409 102.163 161.364 102.175C161.318 102.188 161.271 102.191 161.225 102.185H147.406C147.128 102.185 146.977 102.303 147.052 102.699C147.482 106.067 149.781 108.307 153.25 108.307C154.21 108.298 155.157 108.093 156.034 107.705C156.912 107.317 157.701 106.754 158.353 106.05C158.631 105.772 158.825 105.697 159.018 105.89L160.307 107.297C160.343 107.328 160.371 107.367 160.391 107.411C160.411 107.454 160.421 107.501 160.421 107.549C160.421 107.597 160.411 107.644 160.391 107.688C160.371 107.731 160.343 107.77 160.307 107.802C159.403 108.769 158.311 109.541 157.097 110.07C155.883 110.599 154.574 110.873 153.25 110.875C147.869 110.892 144.055 107.153 144.055 101.427ZM158.547 99.4737C158.373 98.0981 157.695 96.8356 156.646 95.9293C155.597 95.0229 154.249 94.5368 152.863 94.5644C151.468 94.5514 150.117 95.0469 149.061 95.9582C148.006 96.8696 147.319 98.1344 147.128 99.5158C147.052 99.8274 147.128 99.9453 147.482 99.9453H158.202C158.513 99.9453 158.631 99.8274 158.547 99.4737Z" fill="white"/>
<path d="M173.831 91.9959C175.272 91.943 176.702 92.267 177.98 92.936C179.257 93.605 180.338 94.5959 181.115 95.8105C181.143 95.8559 181.161 95.9066 181.169 95.9594C181.176 96.0121 181.173 96.0659 181.159 96.1173C181.144 96.1687 181.12 96.2166 181.086 96.258C181.053 96.2994 181.011 96.3334 180.963 96.3579L179.279 97.2926C179.235 97.3233 179.184 97.3439 179.131 97.3528C179.077 97.3618 179.022 97.359 178.97 97.3445C178.918 97.3301 178.87 97.3044 178.829 97.2692C178.787 97.2341 178.754 97.1903 178.732 97.141C178.204 96.3293 177.474 95.6693 176.613 95.2263C175.752 94.7833 174.79 94.5725 173.823 94.6148C170.075 94.6148 167.667 97.3852 167.667 101.436C167.667 105.486 170.075 108.256 173.823 108.256C174.787 108.281 175.742 108.062 176.6 107.621C177.458 107.18 178.191 106.529 178.732 105.73C178.755 105.681 178.788 105.638 178.829 105.602C178.87 105.567 178.917 105.541 178.969 105.526C179.021 105.511 179.076 105.507 179.129 105.515C179.183 105.522 179.234 105.541 179.279 105.57L180.963 106.505C181.011 106.529 181.053 106.563 181.086 106.605C181.12 106.646 181.144 106.694 181.159 106.746C181.173 106.797 181.176 106.851 181.169 106.903C181.161 106.956 181.143 107.007 181.115 107.052C179.827 109.629 176.905 110.875 173.831 110.875C168.568 110.875 164.787 107.094 164.787 101.444C164.787 95.7937 168.568 91.9959 173.831 91.9959Z" fill="white"/>
<path d="M186.732 85.3348L188.837 84.198C189.106 84.0801 189.3 84.198 189.3 84.4759V92.1894C189.299 92.2151 189.303 92.2408 189.312 92.2649C189.322 92.2889 189.336 92.3108 189.354 92.329C189.372 92.3472 189.394 92.3614 189.418 92.3707C189.442 92.3801 189.468 92.3842 189.494 92.383H191.641C191.693 92.3806 191.744 92.389 191.792 92.4076C191.84 92.4263 191.884 92.4547 191.92 92.4912C191.957 92.5276 191.985 92.5713 192.004 92.6194C192.022 92.6675 192.031 92.7189 192.028 92.7704V94.4546C192.032 94.5067 192.025 94.5591 192.007 94.6082C191.988 94.6573 191.96 94.702 191.924 94.7394C191.887 94.7768 191.843 94.806 191.794 94.8251C191.746 94.8442 191.693 94.8528 191.641 94.8503H189.494C189.468 94.8491 189.442 94.8533 189.418 94.8626C189.394 94.8719 189.372 94.8862 189.354 94.9044C189.336 94.9226 189.322 94.9445 189.312 94.9685C189.303 94.9925 189.299 95.0183 189.3 95.044V110.075C189.304 110.127 189.296 110.18 189.278 110.229C189.26 110.278 189.232 110.323 189.195 110.36C189.159 110.397 189.115 110.427 189.066 110.446C189.017 110.465 188.965 110.473 188.913 110.471H186.883C186.831 110.473 186.778 110.465 186.729 110.446C186.68 110.427 186.635 110.398 186.598 110.36C186.561 110.323 186.532 110.278 186.513 110.229C186.494 110.18 186.485 110.128 186.488 110.075V95.0356C186.489 95.0098 186.485 94.9841 186.475 94.9601C186.466 94.936 186.452 94.9142 186.433 94.896C186.415 94.8777 186.393 94.8635 186.369 94.8542C186.345 94.8449 186.32 94.8407 186.294 94.8419H184.155C184.102 94.8443 184.05 94.8357 184.001 94.8167C183.952 94.7976 183.907 94.7686 183.87 94.7313C183.833 94.6941 183.803 94.6495 183.784 94.6004C183.765 94.5513 183.757 94.4987 183.759 94.4461V92.762C183.757 92.7097 183.765 92.6575 183.784 92.6088C183.804 92.5601 183.833 92.516 183.87 92.4795C183.908 92.4429 183.952 92.4146 184.001 92.3965C184.05 92.3785 184.103 92.371 184.155 92.3746H186.294C186.32 92.3758 186.345 92.3716 186.369 92.3623C186.393 92.353 186.415 92.3388 186.433 92.3206C186.452 92.3023 186.466 92.2805 186.475 92.2565C186.485 92.2324 186.489 92.2067 186.488 92.1809V85.8232C186.473 85.7266 186.488 85.6276 186.532 85.5401C186.576 85.4526 186.645 85.3809 186.732 85.3348Z" fill="white"/>
</svg>
