<svg width="15" height="15" viewBox="0 0 15 15" fill="none" xmlns="http://www.w3.org/2000/svg">
<path d="M4.6875 0.625C4.6075 0.625 4.52749 0.655615 4.46655 0.716553C4.34468 0.838428 4.34468 1.03657 4.46655 1.15845L5.28564 1.97754C4.35569 2.65995 3.75 3.75797 3.75 5H11.25C11.25 3.75797 10.6443 2.65995 9.71436 1.97754L10.5334 1.15845C10.6553 1.03595 10.6553 0.839053 10.5334 0.716553C10.4116 0.594678 10.2134 0.594678 10.0916 0.716553L9.16504 1.64307C8.66288 1.39347 8.09887 1.25 7.5 1.25C6.90113 1.25 6.33711 1.39347 5.83496 1.64307L4.90845 0.716553C4.84751 0.655615 4.7675 0.625 4.6875 0.625ZM5.625 3.125H6.25V3.75H5.625V3.125ZM8.75 3.125H9.375V3.75H8.75V3.125ZM2.5 5.625C2.155 5.625 1.875 5.905 1.875 6.25V10C1.875 10.345 2.155 10.625 2.5 10.625C2.845 10.625 3.125 10.345 3.125 10V6.25C3.125 5.905 2.845 5.625 2.5 5.625ZM3.75 5.625V10.625C3.75 10.97 4.03 11.25 4.375 11.25H5V13.4375C5 13.955 5.42 14.375 5.9375 14.375C6.455 14.375 6.875 13.955 6.875 13.4375V11.25H8.125V13.4375C8.125 13.955 8.545 14.375 9.0625 14.375C9.58 14.375 10 13.955 10 13.4375V11.25H10.625C10.97 11.25 11.25 10.97 11.25 10.625V5.625H3.75ZM12.5 5.625C12.155 5.625 11.875 5.905 11.875 6.25V10C11.875 10.345 12.155 10.625 12.5 10.625C12.845 10.625 13.125 10.345 13.125 10V6.25C13.125 5.905 12.845 5.625 12.5 5.625Z" fill="#282828"/>
</svg>
